<?xml version="1.0" encoding="UTF-8"?>
<!-- Generated by Pixelmator Pro 2.4.1 -->
<svg width="376" height="412" viewBox="0 0 376 412" xmlns="http://www.w3.org/2000/svg" xmlns:xlink="http://www.w3.org/1999/xlink">
    <path id="path1" fill="#080808" stroke="none" d="M -230 242.333344 L -230 -60.333313 L 150 -60.333313 L 530 -60.333313 L 530 242.333344 L 530 545 L 150 545 L -230 545 L -230 242.333344 Z"/>
    <path id="path2" fill="#ffffff" stroke="none" d="M -230 242.333344 L -230 -60.333313 L 150 -60.333313 L 530 -60.333313 L 530 242.333344 L 530 545 L 150 545 L -230 545 L -230 242.333344 Z M 224.666656 409 C 226 407.666687 227.333344 406.333313 227.333344 402.333313 C 227.333344 398.333313 226 397 222 393 C 219.333344 390.333313 214 386.333313 211.333344 383.666687 C 207.333344 382.333313 204.666656 381 204.666656 379.666687 L 204.666656 379.666687 L 206 373 C 207.333344 369 208.666656 363.666687 207.333344 358.333313 L 207.333344 350.333313 L 215.333344 351.666687 L 223.333344 351.666687 L 223.333344 349 C 224.666656 347.666687 224.666656 341 226 335.666687 L 226 325 L 232.666656 326.333313 C 240.666656 326.333313 240.666656 326.333313 252.666656 306.333313 C 256.666656 297 260.666656 291.666687 262 291.666687 C 263.333344 291.666687 276.666656 295.666687 291.333313 301 C 307.333313 305 320.666687 309 322 309 C 324.666687 309 330 305 338 295.666687 C 360.666687 273 375.333313 257 375.333313 255.666656 C 375.333313 251.666656 371.333313 249 359.333313 245 C 331.333313 233 290 222.333344 271.333344 222.333344 L 263.333344 222.333344 L 263.333344 221 C 263.333344 221 264.666656 218.333344 264.666656 215.666656 C 268.666656 209 268.666656 206.333344 263.333344 197 C 259.333344 187.666656 259.333344 187.666656 250 187.666656 C 243.333344 187.666656 235.333344 189 230 190.333344 C 224.666656 191.666656 219.333344 193 219.333344 193 C 219.333344 191.666656 219.333344 187.666656 220.666656 182.333344 C 222 177 223.333344 166.333344 223.333344 158.333344 C 224.666656 143.666656 224.666656 142.333344 230 130.333344 C 242 106.333344 244.666656 91.666656 246 53 C 246 23.666687 246 11.666687 242 3.666687 C 238 -3 232.666656 2.333313 223.333344 22.333313 C 210 46.333344 206 61 202 89 L 199.333344 106.333344 L 194 102.333344 C 179.333344 91.666656 166 87.666656 140.666656 87.666656 C 123.333344 87.666656 123.333344 87.666656 110 75.666656 C 94 62.333344 76.666656 50.333344 62 42.333344 C 40.666656 33 6 23.666687 2 27.666687 L 0.666672 29 L 2 33 C 6 41 23.333328 61 34 71.666656 C 51.333344 89 70 101 87.333344 107.666656 L 95.333344 110.333344 L 95.333344 110.333344 C 95.333344 111.666656 90 123.666656 82 137 C 75.333344 151.666656 68.666656 167.666656 68.666656 170.333344 C 67.333344 178.333344 68.666656 186.333344 72.666656 199.666656 L 75.333344 207.666656 L 70 207.666656 C 60.666656 210.333344 54 213 48.666656 217 C 32.666656 229 35.333344 255.666656 51.333344 266.333344 C 54 269 58 271.666656 59.333344 273 L 60.666656 274.333344 L 50 306.333313 C 35.333344 349 34 359.666687 40.666656 369 C 42 370.333313 43.333344 373 43.333344 373 C 43.333344 374.333313 40.666656 375.666687 36.666656 377 C 26 383.666687 20.666672 390.333313 26 395.666687 C 30 399.666687 39.333344 399.666687 64.666656 395.666687 C 80.666656 394.333313 83.333344 393 87.333344 389 C 90 386.333313 91.333344 385 104.666656 385 C 118 385 123.333344 385 142 389 C 158 393 163.333344 394.333313 166 397 C 167.333344 399.666687 171.333344 401 180.666656 402.333313 C 187.333344 403.666687 195.333344 406.333313 200.666656 407.666687 C 215.333344 411.666687 220.666656 413 224.666656 409 Z M 216.666656 406.333313 C 214 406.333313 207.333344 403.666687 199.333344 401 L 184.666656 397 L 184.666656 395.666687 L 184.666656 394.333313 L 194 391.666687 C 198 390.333313 203.333344 389 206 389 C 210 389 219.333344 395.666687 222 398.333313 L 222 399.666687 L 216.666656 397 C 214 394.333313 210 393 210 393 L 208.666656 393 L 214 397 C 218 399.666687 222 402.333313 222 403.666687 L 222 405 L 215.333344 401 C 211.333344 398.333313 207.333344 395.666687 206 395.666687 L 204.666656 395.666687 L 211.333344 401 C 215.333344 403.666687 219.333344 406.333313 219.333344 406.333313 L 219.333344 407.666687 L 219.333344 407.666687 C 219.333344 407.666687 218 407.666687 216.666656 406.333313 Z M 35.333344 393 C 36.666656 391.666687 39.333344 390.333313 42 389 L 47.333344 386.333313 L 47.333344 385 L 46 385 L 38 389 L 30 393 L 30 391.666687 C 30 389 35.333344 383.666687 42 381 C 48.666656 378.333313 55.333344 377 58 379.666687 L 60.666656 381 L 58 383.666687 C 56.666656 386.333313 46 393 39.333344 394.333313 L 35.333344 394.333313 L 35.333344 393 Z M 190 374.333313 C 186 371.666687 180.666656 367.666687 176.666656 366.333313 C 170 363.666687 167.333344 363.666687 150 363.666687 C 138 363.666687 123.333344 363.666687 115.333344 365 C 95.333344 369 87.333344 367.666687 70 363.666687 C 52.666656 359.666687 50 359.666687 50 366.333313 L 50 369 L 48.666656 369 C 48.666656 369 47.333344 366.333313 46 365 C 42 357 43.333344 346.333313 52.666656 321 C 62 291.666687 68.666656 274.333344 70 273 C 70 271.666656 76.666656 270.333344 83.333344 270.333344 C 91.333344 269 99.333344 267.666656 106 265 C 112.666656 262.333344 116.666656 261 118 262.333344 L 120.666656 263.666656 L 122 261 L 122 257 L 126 257 L 128.666656 257 L 128.666656 255.666656 C 128.666656 255.666656 128.666656 254.333344 127.333344 253 L 126 250.333344 L 128.666656 249 C 130 249 134 249 139.333344 249 C 146 249 154 245 154 242.333344 L 154 241 L 144.666656 241 C 139.333344 239.666656 132.666656 238.333344 130 238.333344 L 126 235.666656 L 127.333344 233 C 128.666656 231.666656 128.666656 230.333344 128.666656 230.333344 L 128.666656 229 L 124.666656 229 C 123.333344 227.666656 119.333344 226.333344 116.666656 223.666656 C 110 219.666656 100.666656 214.333344 94 213 C 91.333344 213 88.666656 211.666656 87.333344 211.666656 C 84.666656 210.333344 78 198.333344 78 195.666656 C 78 194.333344 80.666656 191.666656 83.333344 190.333344 C 90 186.333344 92.666656 178.333344 94 170.333344 C 94 163.666656 94 162.333344 90 155.666656 C 84.666656 149 84.666656 147.666656 86 143.666656 C 88.666656 137 96.666656 121 102 113 L 107.333344 105 L 94 95.666656 C 86 90.333344 74 83.666656 67.333344 79.666656 C 48.666656 67.666656 48.666656 69 48.666656 55.666656 L 50 46.333344 L 52.666656 46.333344 C 56.666656 46.333344 74 55.666656 82 61 C 91.333344 67.666656 108.666656 82.333344 115.333344 89 C 119.333344 94.333344 119.333344 94.333344 139.333344 94.333344 C 158 94.333344 160.666656 94.333344 171.333344 98.333344 C 183.333344 102.333344 188.666656 106.333344 200.666656 115.666656 C 206 119.666656 210 123.666656 211.333344 123.666656 L 211.333344 123.666656 L 208.666656 121 C 206 117 206 115.666656 206 106.333344 C 208.666656 83.666656 216.666656 46.333344 219.333344 42.333344 L 222 41 L 226 45 C 232.666656 51.666656 238 61 238 69 C 238 78.333344 234 93 224.666656 115.666656 C 216.666656 134.333344 216.666656 134.333344 218 147.666656 C 218 158.333344 218 165 215.333344 178.333344 L 211.333344 194.333344 L 206 194.333344 C 199.333344 195.666656 192.666656 201 188.666656 209 C 186 215.666656 186 217 188.666656 225 L 191.333344 230.333344 L 187.333344 233 C 186 234.333344 180.666656 237 176.666656 239.666656 L 170 242.333344 L 171.333344 243.666656 C 174 245 195.333344 233 202 226.333344 C 208.666656 219.666656 210 217 212.666656 211.666656 C 214 205 215.333344 203.666656 219.333344 201 C 227.333344 197 238 194.333344 247.333344 194.333344 L 255.333344 194.333344 L 255.333344 198.333344 L 255.333344 202.333344 L 258 202.333344 L 260.666656 202.333344 L 260.666656 206.333344 C 260.666656 207.666656 259.333344 211.666656 258 215.666656 L 254 222.333344 L 251.333344 221 L 248.666656 221 L 248.666656 223.666656 C 246 229 232.666656 241 216.666656 250.333344 C 207.333344 255.666656 198 262.333344 195.333344 263.666656 C 191.333344 269 187.333344 274.333344 187.333344 279.666656 L 187.333344 282.333344 L 190 282.333344 L 192.666656 282.333344 L 191.333344 291.666687 C 190 310.333313 191.333344 319.666687 195.333344 333 C 202 354.333313 203.333344 371.666687 196.666656 377 L 194 379.666687 L 190 374.333313 Z M 146 217 C 151.333344 211.666656 158 202.333344 162 198.333344 C 164.666656 193 168.666656 186.333344 170 183.666656 L 174 179.666656 L 174 179.666656 C 174 179.666656 171.333344 179.666656 168.666656 179.666656 C 166 178.333344 160.666656 177 155.333344 173 C 147.333344 167.666656 147.333344 167.666656 138 167.666656 C 130 169 127.333344 167.666656 124.666656 166.333344 L 120.666656 165 L 120.666656 183.666656 C 122 205 124.666656 218.333344 130 222.333344 C 131.333344 225 134 226.333344 135.333344 226.333344 C 136.666656 226.333344 142 222.333344 146 217 Z M 198 174.333344 C 202 170.333344 202 165 199.333344 159.666656 C 195.333344 153 184.666656 153 182 161 C 179.333344 167.666656 180.666656 173 184.666656 175.666656 C 188.666656 178.333344 194 178.333344 198 174.333344 Z M 151.333344 162.333344 C 152.666656 162.333344 154 159.666656 154 159.666656 C 154 157 150 155.666656 147.333344 155.666656 L 144.666656 157 L 143.333344 158.333344 C 143.333344 159.666656 144.666656 162.333344 146 163.666656 C 148.666656 165 150 165 151.333344 162.333344 Z M 120.666656 150.333344 C 126 146.333344 124.666656 134.333344 118 131.666656 C 112.666656 129 106 131.666656 103.333344 138.333344 C 102 142.333344 102 142.333344 103.333344 147.666656 C 107.333344 154.333344 115.333344 155.666656 120.666656 150.333344 Z M 198 325 C 195.333344 323.666687 195.333344 322.333313 195.333344 305 C 196.666656 285 196.666656 282.333344 203.333344 277 C 206 275.666656 212.666656 269 219.333344 262.333344 L 231.333344 251.666656 L 230 257 C 227.333344 273 223.333344 294.333313 223.333344 295.666687 C 223.333344 295.666687 218 294.333313 212.666656 294.333313 C 206 293 202 291.666687 202 293 C 200.666656 294.333313 200.666656 299.666687 202 309 C 202 317 203.333344 323.666687 203.333344 325 L 203.333344 327.666687 L 202 327.666687 C 202 327.666687 199.333344 326.333313 198 325 Z M 219.333344 305 C 214 301 208.666656 297 208.666656 297 L 208.666656 295.666687 L 216.666656 297 C 220.666656 298.333313 224.666656 298.333313 226 298.333313 C 226 297 228.666656 285 231.333344 271.666656 C 238 243.666656 239.333344 239.666656 247.333344 231.666656 C 252.666656 225 254 225 278 229 C 306 234.333344 350 245 362 251.666656 L 367.333313 254.333344 L 364.666687 257 C 358 265 324.666687 302.333313 323.333313 303.666687 L 322 303.666687 L 314 295.666687 C 308.666687 291.666687 300.666687 285 295.333313 281 C 280.666656 270.333344 251.333344 253 247.333344 253 L 246 253 L 244.666656 258.333344 C 243.333344 261 240.666656 273 238 285 C 236.666656 298.333313 234 309 232.666656 311.666687 L 232.666656 314.333313 L 231.333344 314.333313 C 231.333344 314.333313 226 310.333313 219.333344 305 Z M 98 258.333344 C 87.333344 258.333344 74 255.666656 67.333344 255.666656 C 60.666656 254.333344 54 253 52.666656 253 L 48.666656 254.333344 L 47.333344 250.333344 C 44.666656 245 44.666656 235.666656 46 230.333344 C 48.666656 226.333344 55.333344 221 60.666656 217 C 67.333344 214.333344 86 214.333344 98 217 C 107.333344 221 122 230.333344 122 234.333344 C 122 235.666656 123.333344 237 124.666656 238.333344 L 126 241 L 124.666656 242.333344 L 123.333344 245 L 124.666656 245 L 124.666656 246.333344 L 123.333344 247.666656 C 122 249 122 250.333344 123.333344 251.666656 L 123.333344 254.333344 L 122 254.333344 L 119.333344 254.333344 L 119.333344 255.666656 C 119.333344 257 119.333344 258.333344 118 258.333344 C 118 258.333344 108.666656 258.333344 98 258.333344 Z M 131.333344 218.333344 C 127.333344 213 124.666656 183.666656 127.333344 181 C 128.666656 181 132.666656 181 136.666656 181 C 146 181 152.666656 182.333344 156.666656 189 L 159.333344 191.666656 L 156.666656 197 C 152.666656 205 138 219.666656 135.333344 219.666656 C 134 219.666656 132.666656 218.333344 131.333344 218.333344 Z M 184.666656 163.666656 C 182 158.333344 190 154.333344 192.666656 159.666656 L 194 162.333344 L 192.666656 163.666656 C 190 167.666656 186 166.333344 184.666656 163.666656 Z M 114 142.333344 L 111.333344 139.666656 L 111.333344 137 L 112.666656 134.333344 L 115.333344 134.333344 C 120.666656 134.333344 123.333344 139.666656 119.333344 142.333344 C 116.666656 143.666656 116.666656 143.666656 114 142.333344 Z"/>
</svg>
